<?xml version="1.0" encoding="UTF-8" standalone="no"?>
<svg
   xmlns:dc="http://purl.org/dc/elements/1.1/"
   xmlns:cc="http://creativecommons.org/ns#"
   xmlns:rdf="http://www.w3.org/1999/02/22-rdf-syntax-ns#"
   xmlns:svg="http://www.w3.org/2000/svg"
   xmlns="http://www.w3.org/2000/svg"
   xmlns:sodipodi="http://sodipodi.sourceforge.net/DTD/sodipodi-0.dtd"
   xmlns:inkscape="http://www.inkscape.org/namespaces/inkscape"
   viewBox="0 -256 1850 1850"
   id="svg3001"
   version="1.1"
   inkscape:version="0.48.3.1 r9886"
   width="100%"
   height="100%"
   sodipodi:docname="align_left_font_awesome.svg">
  <metadata
     id="metadata3011">
    <rdf:RDF>
      <cc:Work
         rdf:about="">
        <dc:format>image/svg+xml</dc:format>
        <dc:type
           rdf:resource="http://purl.org/dc/dcmitype/StillImage" />
      </cc:Work>
    </rdf:RDF>
  </metadata>
  <defs
     id="defs3009" />
  <sodipodi:namedview
     pagecolor="#ffffff"
     bordercolor="#666666"
     borderopacity="1"
     objecttolerance="10"
     gridtolerance="10"
     guidetolerance="10"
     inkscape:pageopacity="0"
     inkscape:pageshadow="2"
     inkscape:window-width="640"
     inkscape:window-height="480"
     id="namedview3007"
     showgrid="false"
     inkscape:zoom="0.13169643"
     inkscape:cx="896"
     inkscape:cy="896"
     inkscape:window-x="0"
     inkscape:window-y="25"
     inkscape:window-maximized="0"
     inkscape:current-layer="svg3001" />
  <g
     transform="matrix(1,0,0,-1,37.966102,1381.3898)"
     id="g3003">
    <path
       d="M 1792,192 V 64 Q 1792,38 1773,19 1754,0 1728,0 H 64 Q 38,0 19,19 0,38 0,64 v 128 q 0,26 19,45 19,19 45,19 h 1664 q 26,0 45,-19 19,-19 19,-45 z M 1408,576 V 448 q 0,-26 -19,-45 -19,-19 -45,-19 H 64 Q 38,384 19,403 0,422 0,448 v 128 q 0,26 19,45 19,19 45,19 h 1280 q 26,0 45,-19 19,-19 19,-45 z m 256,384 V 832 q 0,-26 -19,-45 -19,-19 -45,-19 H 64 Q 38,768 19,787 0,806 0,832 v 128 q 0,26 19,45 19,19 45,19 h 1536 q 26,0 45,-19 19,-19 19,-45 z m -384,384 v -128 q 0,-26 -19,-45 -19,-19 -45,-19 H 64 q -26,0 -45,19 -19,19 -19,45 v 128 q 0,26 19,45 19,19 45,19 h 1152 q 26,0 45,-19 19,-19 19,-45 z"
       id="path3005"
       inkscape:connector-curvature="0"
       style="fill:currentColor" />
  </g>
</svg>
