<?xml version="1.0" encoding="UTF-8" standalone="no"?>
<svg
   xmlns:dc="http://purl.org/dc/elements/1.1/"
   xmlns:cc="http://creativecommons.org/ns#"
   xmlns:rdf="http://www.w3.org/1999/02/22-rdf-syntax-ns#"
   xmlns:svg="http://www.w3.org/2000/svg"
   xmlns="http://www.w3.org/2000/svg"
   xmlns:sodipodi="http://sodipodi.sourceforge.net/DTD/sodipodi-0.dtd"
   xmlns:inkscape="http://www.inkscape.org/namespaces/inkscape"
   viewBox="0 -256 1950 1950"
   id="svg3037"
   version="1.1"
   inkscape:version="0.48.3.1 r9886"
   width="100%"
   height="100%"
   sodipodi:docname="camera_font_awesome.svg">
  <metadata
     id="metadata3047">
    <rdf:RDF>
      <cc:Work
         rdf:about="">
        <dc:format>image/svg+xml</dc:format>
        <dc:type
           rdf:resource="http://purl.org/dc/dcmitype/StillImage" />
      </cc:Work>
    </rdf:RDF>
  </metadata>
  <defs
     id="defs3045" />
  <sodipodi:namedview
     pagecolor="#ffffff"
     bordercolor="#666666"
     borderopacity="1"
     objecttolerance="10"
     gridtolerance="10"
     guidetolerance="10"
     inkscape:pageopacity="0"
     inkscape:pageshadow="2"
     inkscape:window-width="640"
     inkscape:window-height="480"
     id="namedview3043"
     showgrid="false"
     inkscape:zoom="0.13169643"
     inkscape:cx="960"
     inkscape:cy="896"
     inkscape:window-x="0"
     inkscape:window-y="25"
     inkscape:window-maximized="0"
     inkscape:current-layer="svg3037" />
  <g
     transform="matrix(1,0,0,-1,15.186441,1413.0508)"
     id="g3039">
    <path
       d="m 960,864 q 119,0 203.5,-84.5 Q 1248,695 1248,576 1248,457 1163.5,372.5 1079,288 960,288 841,288 756.5,372.5 672,457 672,576 672,695 756.5,779.5 841,864 960,864 z m 704,416 q 106,0 181,-75 75,-75 75,-181 V 128 q 0,-106 -75,-181 -75,-75 -181,-75 H 256 Q 150,-128 75,-53 0,22 0,128 v 896 q 0,106 75,181 75,75 181,75 h 224 l 51,136 q 19,49 69.5,84.5 Q 651,1536 704,1536 h 512 q 53,0 103.5,-35.5 50.5,-35.5 69.5,-84.5 l 51,-136 h 224 z M 960,128 q 185,0 316.5,131.5 Q 1408,391 1408,576 1408,761 1276.5,892.5 1145,1024 960,1024 775,1024 643.5,892.5 512,761 512,576 512,391 643.5,259.5 775,128 960,128 z"
       id="path3041"
       inkscape:connector-curvature="0"
       style="fill:currentColor" />
  </g>
</svg>
