<?xml version="1.0" encoding="UTF-8" standalone="no"?>
<svg
   xmlns:dc="http://purl.org/dc/elements/1.1/"
   xmlns:cc="http://creativecommons.org/ns#"
   xmlns:rdf="http://www.w3.org/1999/02/22-rdf-syntax-ns#"
   xmlns:svg="http://www.w3.org/2000/svg"
   xmlns="http://www.w3.org/2000/svg"
   xmlns:sodipodi="http://sodipodi.sourceforge.net/DTD/sodipodi-0.dtd"
   xmlns:inkscape="http://www.inkscape.org/namespaces/inkscape"
   viewBox="0 -256 1950 1950"
   id="svg3001"
   version="1.1"
   inkscape:version="0.48.3.1 r9886"
   width="100%"
   height="100%"
   sodipodi:docname="facetime_video_font_awesome.svg">
  <metadata
     id="metadata3011">
    <rdf:RDF>
      <cc:Work
         rdf:about="">
        <dc:format>image/svg+xml</dc:format>
        <dc:type
           rdf:resource="http://purl.org/dc/dcmitype/StillImage" />
      </cc:Work>
    </rdf:RDF>
  </metadata>
  <defs
     id="defs3009" />
  <sodipodi:namedview
     pagecolor="#ffffff"
     bordercolor="#666666"
     borderopacity="1"
     objecttolerance="10"
     gridtolerance="10"
     guidetolerance="10"
     inkscape:pageopacity="0"
     inkscape:pageshadow="2"
     inkscape:window-width="640"
     inkscape:window-height="480"
     id="namedview3007"
     showgrid="false"
     inkscape:zoom="0.13169643"
     inkscape:cx="960"
     inkscape:cy="896"
     inkscape:window-x="0"
     inkscape:window-y="25"
     inkscape:window-maximized="0"
     inkscape:current-layer="svg3001" />
  <g
     transform="matrix(1,0,0,-1,22.779661,1397.8644)"
     id="g3003">
    <path
       d="m 1900,1278 q 20,-8 20,-30 V 32 q 0,-22 -20,-30 -8,-2 -12,-2 -12,0 -23,9 L 1280,595 V 288 Q 1280,169 1195.5,84.5 1111,0 992,0 H 288 Q 169,0 84.5,84.5 0,169 0,288 V 992 Q 0,1111 84.5,1195.5 169,1280 288,1280 h 704 q 119,0 203.5,-84.5 Q 1280,1111 1280,992 V 685 l 585,586 q 16,15 35,7 z"
       id="path3005"
       inkscape:connector-curvature="0"
       style="fill:currentColor" />
  </g>
</svg>
