<?xml version="1.0" encoding="UTF-8" standalone="no"?>
<svg
   xmlns:dc="http://purl.org/dc/elements/1.1/"
   xmlns:cc="http://creativecommons.org/ns#"
   xmlns:rdf="http://www.w3.org/1999/02/22-rdf-syntax-ns#"
   xmlns:svg="http://www.w3.org/2000/svg"
   xmlns="http://www.w3.org/2000/svg"
   xmlns:sodipodi="http://sodipodi.sourceforge.net/DTD/sodipodi-0.dtd"
   xmlns:inkscape="http://www.inkscape.org/namespaces/inkscape"
   id="svg4622"
   sodipodi:version="0.32"
   inkscape:version="0.48.2 r9819"
   width="24"
   height="24"
   sodipodi:docname="icon.svg"
   inkscape:output_extension="org.inkscape.output.svg.inkscape"
   version="1.1">
  <metadata
     id="metadata4635">
    <rdf:RDF>
      <cc:Work
         rdf:about="">
        <dc:format>image/svg+xml</dc:format>
        <dc:type
           rdf:resource="http://purl.org/dc/dcmitype/StillImage" />
      </cc:Work>
    </rdf:RDF>
  </metadata>
  <defs
     id="defs4633">
    <inkscape:perspective
       sodipodi:type="inkscape:persp3d"
       inkscape:vp_x="0 : 526.18109 : 1"
       inkscape:vp_y="0 : 1000 : 0"
       inkscape:vp_z="744.09448 : 526.18109 : 1"
       inkscape:persp3d-origin="372.04724 : 350.78739 : 1"
       id="perspective24" />
  </defs>
  <sodipodi:namedview
     inkscape:window-height="947"
     inkscape:window-width="1280"
     inkscape:pageshadow="2"
     inkscape:pageopacity="0.0"
     guidetolerance="10.0"
     gridtolerance="10.0"
     objecttolerance="10.0"
     borderopacity="1.0"
     bordercolor="#666666"
     pagecolor="#ffffff"
     id="base"
     inkscape:zoom="15.356764"
     inkscape:cx="18.698604"
     inkscape:cy="7.0255083"
     inkscape:window-x="0"
     inkscape:window-y="26"
     inkscape:current-layer="layer2"
     showgrid="false"
     fit-margin-top="0"
     fit-margin-left="0"
     fit-margin-right="0"
     fit-margin-bottom="0"
     inkscape:window-maximized="0" />
  <g
     inkscape:groupmode="layer"
     id="layer2"
     inkscape:label="ss"
     transform="translate(-265.0505,-507.29598)">
    <g
       id="g2987"
       transform="matrix(0.08749669,0,0,0.08749669,243.55531,484.55934)">
      <path
         inkscape:connector-curvature="0"
         d="m 470.62607,440.68699 25.80279,-98.2106 -93.81011,-25.80278 -26.60288,95.61032 c -63.0068,-16.6018 -94.41018,-24.60266 -94.41018,-24.20261 -9.201,35.00376 -6.80074,65.40705 7.20077,91.00982 6.00066,11.40123 14.20154,21.00226 24.20261,29.00312 9.60104,7.20077 20.40221,12.60136 32.4035,15.80171 11.60126,3.40036 23.60254,4.00042 36.00389,2.40024 12.60136,-1.60016 24.60265,-5.60059 35.60383,-12.2013 25.40274,-14.80161 43.20468,-39.20424 53.60578,-73.40792 z"
         id="path4659"
         style="fill:#ff9900" />
      <path
         inkscape:connector-curvature="0"
         d="m 388.21719,291.47089 -93.21006,-24.60266 -25.80279,92.20995 93.41009,25.80279 25.60276,-93.41008 z"
         id="path4663"
         style="fill:#d9ff00" />
      <path
         inkscape:connector-curvature="0"
         d="m 295.00713,266.86823 -25.80279,92.20995 93.41009,25.80279 25.60276,-93.41008 -93.21006,-24.60266"
         id="path4667"
         style="fill:none;stroke:#7d9400;stroke-width:8.30768299;stroke-linecap:round;stroke-linejoin:round;stroke-miterlimit:4;stroke-dasharray:none" />
      <path
         inkscape:connector-curvature="0"
         d="m 496.42886,342.47639 -93.81011,-25.80278 -26.60288,95.61032 c -63.0068,-16.6018 -94.41018,-24.60266 -94.41018,-24.20261 -9.201,35.00376 -6.80074,65.40705 7.20077,91.00982 6.00066,11.40123 14.20154,21.00226 24.20261,29.00312 9.60104,7.20077 20.40221,12.60136 32.4035,15.80171 11.60126,3.40036 23.60254,4.00042 36.00389,2.40024 12.60136,-1.60016 24.60265,-5.60059 35.60383,-12.2013 25.40274,-14.80161 43.20468,-39.20424 53.60578,-73.40792 l 25.80279,-98.2106"
         id="path4671"
         style="fill:none;stroke:#955a02;stroke-width:8.30768299;stroke-linejoin:round;stroke-miterlimit:4;stroke-dasharray:none" />
    </g>
  </g>
</svg>
