<?xml version="1.0" encoding="UTF-8" standalone="no"?>
<!-- Generator: Adobe Illustrator 12.0.1, SVG Export Plug-In . SVG Version: 6.00 Build 51448)  -->
<svg
   xmlns:dc="http://purl.org/dc/elements/1.1/"
   xmlns:cc="http://creativecommons.org/ns#"
   xmlns:rdf="http://www.w3.org/1999/02/22-rdf-syntax-ns#"
   xmlns:svg="http://www.w3.org/2000/svg"
   xmlns="http://www.w3.org/2000/svg"
   xmlns:sodipodi="http://sodipodi.sourceforge.net/DTD/sodipodi-0.dtd"
   xmlns:inkscape="http://www.inkscape.org/namespaces/inkscape"
   version="1.0"
   id="Layer_1"
   width="300"
   height="300"
   viewBox="0 0 660.754 502.26"
   overflow="visible"
   enable-background="new 0 0 660.754 502.26"
   xml:space="preserve"
   sodipodi:version="0.32"
   inkscape:version="0.46"
   sodipodi:docname="icon.svg"
   sodipodi:docbase="/home/abachill/Desktop"
   inkscape:output_extension="org.inkscape.output.svg.inkscape"
   style="overflow:visible"><metadata
   id="metadata10323"><rdf:RDF><cc:Work
       rdf:about=""><dc:format>image/svg+xml</dc:format><dc:type
         rdf:resource="http://purl.org/dc/dcmitype/StillImage" /></cc:Work></rdf:RDF></metadata><defs
   id="defs10321"><inkscape:perspective
     sodipodi:type="inkscape:persp3d"
     inkscape:vp_x="0 : 251.13 : 1"
     inkscape:vp_y="0 : 1000 : 0"
     inkscape:vp_z="660.75403 : 251.13 : 1"
     inkscape:persp3d-origin="330.37701 : 167.42 : 1"
     id="perspective88" /></defs><sodipodi:namedview
   inkscape:window-height="715"
   inkscape:window-width="872"
   inkscape:pageshadow="2"
   inkscape:pageopacity="0.0"
   guidetolerance="10.0"
   gridtolerance="10.0"
   objecttolerance="10.0"
   borderopacity="1.0"
   bordercolor="#666666"
   pagecolor="#ffffff"
   id="base"
   inkscape:zoom="0.84020227"
   inkscape:cx="53.522887"
   inkscape:cy="267.40399"
   inkscape:window-x="3"
   inkscape:window-y="49"
   inkscape:current-layer="Layer_1"
   showgrid="false" />














<g
   id="g2384"
   transform="matrix(1.0426316,0,0,1.0426316,9.8212788,11.143201)"><g
     transform="matrix(5.0633425,0,0,5.0633425,-154.65473,-62.132654)"
     id="g10210">
	<path
   style="fill:#c6fe35"
   id="path10212"
   d="M 122.463,106.62 L 145.157,39.387 L 137.311,39.387 C 137.311,39.387 133.696,39.345 130.693,41.598 C 127.69,43.851 126.297,47.752 126.297,47.752 L 113.845,84.641 L 106.634,62.892 C 104.076,68.394 101.176,71.192 97.5,74.265 C 96.705,74.93 95.774,76.082 95.735,77.191 C 95.695,78.301 96.116,79.624 96.116,79.624 L 105.209,106.572 C 105.209,106.572 105.522,107.489 106.078,107.934 C 106.613,108.361 107.433,108.324 107.433,108.324 L 120.11,108.324 C 120.11,108.324 121.04,108.33 121.594,107.961 C 122.227,107.538 122.463,106.62 122.463,106.62 z" />
	<path
   style="fill:#006085"
   id="path10214"
   d="M 151.985,34.485 L 145.157,34.485 L 137.311,34.485 L 137.296,34.485 C 136.412,34.485 131.799,34.639 127.751,37.677 C 123.686,40.727 121.874,45.563 121.681,46.105 L 121.667,46.144 L 121.653,46.184 L 113.887,69.19 L 111.287,61.35 L 107.398,49.622 L 102.189,60.826 C 99.979,65.581 97.548,67.836 94.357,70.504 C 93.336,71.357 90.953,73.699 90.836,77.019 C 90.771,78.834 91.285,80.61 91.445,81.11 L 91.458,81.151 L 91.471,81.191 L 100.563,108.139 L 100.567,108.15 L 100.571,108.162 C 100.804,108.841 101.507,110.55 103.006,111.755 L 103.011,111.758 L 103.015,111.762 C 104.608,113.037 106.434,113.227 107.381,113.227 C 107.419,113.227 107.456,113.226 107.492,113.226 L 120.109,113.226 C 121.015,113.226 122.764,113.072 124.312,112.04 C 126.134,110.823 126.884,108.936 127.14,108.093 L 149.802,40.955 L 151.985,34.485 L 151.985,34.485 z M 116.451,76.923 L 126.298,47.752 C 126.298,47.752 127.69,43.851 130.693,41.598 C 133.586,39.427 137.046,39.387 137.296,39.387 C 137.306,39.387 137.311,39.387 137.311,39.387 L 145.157,39.387 L 145.157,39.387 L 145.157,39.387 L 122.463,106.62 C 122.463,106.62 122.227,107.538 121.593,107.961 C 121.056,108.319 120.167,108.324 120.111,108.324 C 120.109,108.324 120.109,108.324 120.109,108.324 L 107.432,108.324 C 107.432,108.324 107.414,108.325 107.381,108.325 C 107.195,108.325 106.532,108.298 106.077,107.934 C 105.522,107.488 105.208,106.572 105.208,106.572 L 96.116,79.624 C 96.116,79.624 95.734,78.422 95.732,77.348 C 95.732,77.295 95.733,77.243 95.735,77.191 C 95.774,76.082 96.705,74.93 97.5,74.265 C 101.176,71.193 104.076,68.395 106.634,62.893 L 111.282,76.909 L 111.282,76.909 L 112.303,79.988 L 112.303,79.988 L 113.846,84.641 L 115.414,79.996 L 115.414,79.996 L 116.451,76.923 L 116.451,76.923 L 116.451,76.923 z M 107.551,113.225 C 107.603,113.224 107.655,113.222 107.704,113.219 C 107.652,113.223 107.602,113.225 107.551,113.225 L 107.551,113.225 z" />
</g><g
     transform="matrix(5.0633425,0,0,5.0633425,-154.65473,-62.132654)"
     id="g10216">
	<path
   style="fill:#ff7f00"
   id="path10218"
   d="M 71.419,7.135 C 51.552,7.135 35.446,23.24 35.446,43.108 C 35.446,62.976 51.553,79.08 71.419,79.08 C 72.419,79.08 73.52,78.972 74.666,78.793 L 76.225,83.409 C 76.225,83.409 77.447,86.236 78.931,87.215 C 80.794,88.444 84.484,88.59 84.484,88.59 L 94.008,88.59 L 84.709,60.923 C 84.709,60.923 83.8,57.782 81.083,55.55 C 78.852,53.706 74.328,53.419 73.221,53.485 L 66.127,53.485 L 71.585,69.55 C 69.473,66.383 66.642,65.208 64.963,64.707 C 55.663,61.931 48.882,53.311 48.882,43.109 C 48.882,30.662 58.972,20.573 71.419,20.573 C 83.865,20.573 93.957,30.662 93.957,43.109 C 93.957,46.614 93.155,49.933 91.727,52.891 C 91.086,54.219 90.623,55.206 90.449,56.893 C 90.278,58.547 90.827,60.698 90.827,60.698 L 94.303,70.864 C 94.309,70.86 94.314,70.855 94.32,70.851 C 99.222,66.8 103.026,61.47 105.237,55.377 C 106.627,51.548 107.392,47.419 107.392,43.109 C 107.392,23.24 91.286,7.135 71.419,7.135 z" />
	<path
   style="fill:#006085"
   id="path10220"
   d="M 71.419,2.233 C 65.903,2.233 60.55,3.314 55.507,5.447 C 50.639,7.506 46.268,10.452 42.516,14.205 C 38.764,17.957 35.817,22.328 33.758,27.196 C 31.625,32.238 30.544,37.592 30.544,43.108 C 30.544,48.624 31.625,53.977 33.758,59.02 C 35.817,63.888 38.764,68.258 42.516,72.01 C 46.268,75.763 50.639,78.709 55.507,80.768 C 60.497,82.878 65.79,83.959 71.245,83.981 L 71.581,84.978 L 71.645,85.169 L 71.725,85.354 C 72.267,86.607 73.79,89.696 76.229,91.306 C 79.019,93.145 83.104,93.441 84.289,93.488 L 84.386,93.492 L 84.483,93.492 L 94.007,93.492 L 100.826,93.492 L 98.654,87.028 L 94.924,75.929 L 96.233,75.368 C 96.691,75.171 97.116,74.907 97.497,74.581 C 97.486,74.59 97.476,74.599 97.466,74.608 C 103.082,69.958 107.362,63.887 109.844,57.047 C 111.469,52.571 112.293,47.881 112.293,43.107 C 112.293,37.591 111.212,32.237 109.079,27.195 C 107.02,22.327 104.073,17.956 100.321,14.204 C 96.569,10.451 92.198,7.505 87.33,5.446 C 82.289,3.314 76.936,2.233 71.419,2.233 L 71.419,2.233 z M 35.446,43.108 C 35.446,23.24 51.552,7.135 71.419,7.135 C 91.285,7.135 107.391,23.24 107.391,43.108 L 107.391,43.108 L 107.391,43.108 C 107.391,47.417 106.626,51.547 105.236,55.376 C 103.025,61.469 99.221,66.798 94.319,70.85 C 94.313,70.853 94.309,70.859 94.302,70.862 L 90.826,60.697 C 90.826,60.697 90.413,59.08 90.415,57.572 C 90.415,57.341 90.425,57.113 90.448,56.892 C 90.622,55.205 91.085,54.218 91.726,52.89 C 93.154,49.931 93.956,46.613 93.956,43.108 C 93.956,30.661 83.865,20.571 71.419,20.571 C 58.972,20.571 48.882,30.661 48.882,43.108 C 48.882,53.228 55.555,61.79 64.739,64.638 L 64.739,64.638 C 64.814,64.661 64.888,64.684 64.963,64.706 C 65.797,64.954 66.915,65.369 68.088,66.112 L 68.088,66.112 C 69.277,66.865 70.522,67.954 71.586,69.548 L 66.127,53.484 L 66.127,53.484 L 66.127,53.484 L 73.221,53.484 C 73.311,53.479 73.425,53.476 73.559,53.476 C 75.054,53.476 79.034,53.857 81.083,55.549 C 83.8,57.781 84.709,60.922 84.709,60.922 L 94.008,88.59 L 94.008,88.59 L 94.008,88.59 L 84.484,88.59 C 84.484,88.59 80.795,88.444 78.931,87.215 C 77.448,86.236 76.226,83.409 76.226,83.409 L 74.667,78.793 C 73.52,78.972 72.42,79.08 71.42,79.08 C 51.552,79.081 35.446,62.975 35.446,43.108 L 35.446,43.108 L 35.446,43.108 z M 62.615,58.386 C 60.579,57.207 58.773,55.621 57.344,53.734 C 55.015,50.655 53.784,46.981 53.784,43.108 C 53.784,33.384 61.695,25.473 71.419,25.473 C 81.143,25.473 89.054,33.384 89.054,43.108 C 89.054,45.789 88.468,48.363 87.311,50.759 C 86.903,51.604 86.464,52.515 86.117,53.651 C 85.562,53.003 84.924,52.361 84.194,51.761 C 84.197,51.764 84.2,51.766 84.203,51.769 C 80.521,48.728 74.69,48.574 73.558,48.574 C 73.398,48.574 73.245,48.577 73.103,48.582 L 66.126,48.582 L 59.283,48.582 L 61.485,55.061 L 62.615,58.386 L 62.615,58.386 z" />
</g></g>

















</svg>